<svg width="24" height="24" viewBox="0 0 24 24" fill="none" xmlns="http://www.w3.org/2000/svg">
<path d="M0 4C0 1.79086 1.79086 0 4 0H20C22.2091 0 24 1.79086 24 4V20C24 22.2091 22.2091 24 20 24H4C1.79086 24 0 22.2091 0 20V4Z" fill="#70C05B"/>
<path fill-rule="evenodd" clip-rule="evenodd" d="M7 12C7 11.8159 7.14924 11.6667 7.33333 11.6667H16.6667C16.8508 11.6667 17 11.8159 17 12C17 12.1841 16.8508 12.3334 16.6667 12.3334H7.33333C7.14924 12.3334 7 12.1841 7 12Z" fill="white"/>
<path d="M4 1H20V-1H4V1ZM23 4V20H25V4H23ZM20 23H4V25H20V23ZM1 20V4H-1V20H1ZM4 23C2.34315 23 1 21.6569 1 20H-1C-1 22.7614 1.23858 25 4 25V23ZM23 20C23 21.6569 21.6569 23 20 23V25C22.7614 25 25 22.7614 25 20H23ZM20 1C21.6569 1 23 2.34315 23 4H25C25 1.23858 22.7614 -1 20 -1V1ZM4 -1C1.23858 -1 -1 1.23858 -1 4H1C1 2.34315 2.34315 1 4 1V-1Z" fill="#F3F2F1"/>
</svg>
